# xmcd
#
# Track frame offsets: 
#        150
#        15488
#        29363
#        42524
#        56082
#        70442
#        83719
#        95977
#        107558
#        117832
#        132083
#        143594
#        156156
#        168776
#        182313
#        196937
#        211022
#
# Disc length: 2968 seconds
#
# Revision: 3
# Processed by: cddbd v1.5.2PL0 Copyright (c) Steve Scherf et al.
# Submitted via: ExactAudioCopy v1.3
#
DISCID=de0b9611
DTITLE=Muddy Waters - The Ultimate Jazz archive Set 14
DYEAR=2005
DGENRE=Blues
TTITLE0=Country Blues   
TTITLE1=I Be's Troubled   
TTITLE2=Burr Clover Farm Blues   
TTITLE3=Take A Walk With Me   
TTITLE4=Burr Clover Blues   
TTITLE5=Walkin' Blues 
TTITLE6=Can't Be Satisfied 
TTITLE7=Gypsy Woman 
TTITLE8=Mean Red Spider 
TTITLE9=I Feel Like Going Home 
TTITLE10=Little Anna Mae 
TTITLE11=Train Fare Home Blues 
TTITLE12=Little Geneva 
TTITLE13=Rollin' And Tumblin' 
TTITLE14=Streamline 
TTITLE15=Rolling Stone 
TTITLE16=You Gonna Miss Me 
EXTD=YEAR: 2005
EXTT0=
EXTT1=
EXTT2=
EXTT3=
EXTT4=
EXTT5=
EXTT6=
EXTT7=
EXTT8=
EXTT9=
EXTT10=
EXTT11=
EXTT12=
EXTT13=
EXTT14=
EXTT15=
EXTT16=
PLAYORDER=
